<?xml version="1.0" encoding="UTF-8" standalone="no"?>
<svg
   xmlns:dc="http://purl.org/dc/elements/1.1/"
   xmlns:cc="http://creativecommons.org/ns#"
   xmlns:rdf="http://www.w3.org/1999/02/22-rdf-syntax-ns#"
   xmlns:svg="http://www.w3.org/2000/svg"
   xmlns="http://www.w3.org/2000/svg"
   xmlns:sodipodi="http://sodipodi.sourceforge.net/DTD/sodipodi-0.dtd"
   xmlns:inkscape="http://www.inkscape.org/namespaces/inkscape"
   width="24px"
   height="24px"
   version="1.1"
   id="Layer_1"
   x="0px"
   y="0px"
   viewBox="0 0 74.4 74.4"
   style="enable-background:new 0 0 74.4 74.4;"
   xml:space="preserve"
   preserveAspectRatio="xMinYMid meet"
   sodipodi:docname="monologo.svg"
   inkscape:version="1.0.2-2 (e86c870879, 2021-01-15)"
   inkscape:export-filename="C:\Moodle\server\moodle\mod\cado\pix\monologo.png"
   inkscape:export-xdpi="96"
   inkscape:export-ydpi="96"><metadata
   id="metadata27"><rdf:RDF><cc:Work
       rdf:about=""><dc:format>image/svg+xml</dc:format><dc:type
         rdf:resource="http://purl.org/dc/dcmitype/StillImage" /><dc:title /></cc:Work></rdf:RDF></metadata><defs
   id="defs25" /><sodipodi:namedview
   pagecolor="#ffffff"
   bordercolor="#666666"
   borderopacity="1"
   objecttolerance="10"
   gridtolerance="10"
   guidetolerance="10"
   inkscape:pageopacity="0"
   inkscape:pageshadow="2"
   inkscape:window-width="2560"
   inkscape:window-height="1494"
   id="namedview23"
   showgrid="false"
   inkscape:zoom="3.8281251"
   inkscape:cx="-89.104678"
   inkscape:cy="97.079874"
   inkscape:window-x="-11"
   inkscape:window-y="-11"
   inkscape:window-maximized="1"
   inkscape:current-layer="Layer_1"
   inkscape:document-rotation="0" />

<path
   id="Path_963-6_1_"
   d="m 9.746837,46.657141 c -0.382228,0 -0.7262344,-0.216788 -0.7262344,-0.487772 v -0.0271 -2.303368 H 1.2231328 C 0.5351206,43.838904 0,43.459526 0,42.971754 v 0 V 27.36306 C 0,26.875288 0.5351206,26.49591 1.2231328,26.49591 H 14.218916 c 0.305783,0 0.649789,0.08129 0.840903,0.243885 l 4.62497,3.27891 c 0.229339,0.162588 0.344007,0.379375 0.344007,0.596163 v 12.329784 c 0,0.487773 -0.535119,0.867151 -1.223133,0.867151 v 0 H 10.96997 v 2.303366 c 0,0.298083 -0.344007,0.541968 -0.726235,0.541968 z m 8.294368,-4.281552 V 32.322073 H 13.07223 c -0.688014,0 -1.223134,-0.379378 -1.223134,-0.840051 v 0 -3.522796 H 2.0258129 V 42.402689 H 9.0206026 V 40.289011 H 7.071236 c -0.420451,0 -0.7644588,-0.243886 -0.7644588,-0.541968 0,-0.108391 0.076448,-0.216788 0.152891,-0.325182 L 9.479277,36.576525 c 0.26756,-0.216787 0.688012,-0.243884 1.032018,-0.08129 0.03822,0.0271 3.057832,2.926631 3.057832,2.926631 0.267559,0.243887 0.191114,0.569068 -0.152891,0.758757 -0.114672,0.05419 -0.26756,0.10839 -0.420452,0.10839 h -1.987591 v 2.113678 z M 14.104247,30.723265 h 3.478283 l -3.478283,-2.465957 c 0,0 0,2.465957 0,2.465957 z"
   style="stroke-width:0.321836" /><g
   id="g90"
   transform="matrix(0.26956657,0,0,0.28567096,0,-1.0457033)"><path
     d="m 62,3.8 v 0 H 12.4 C 5.5,3.8 0,9.4 0,16.2 v 0 33.6 c 0,6.9 5.6,12.3 12.4,12.3 h 9 l 13.7,11.6 c 1.2,0.9 2.8,0.9 4,0 L 52.9,62.1 h 9 c 6.9,0 12.4,-5.6 12.4,-12.4 V 16.2 C 74.3,9.3 68.9,3.8 62,3.8 Z m 7.1,11.7 v 34.6 c 0,3.5 -2.8,6.3 -6.3,6.3 v 0 h -9.2 c -1.5,0 -2.9,0.5 -4.1,1.5 L 37.3,68.1 25,57.9 c -1.1,-1 -2.6,-1.5 -4.1,-1.5 h -9.1 c -3.5,0 -6.3,-2.8 -6.3,-6.3 v 0 -34.6 C 5.5,12 8.3,9.2 11.8,9.2 v 0 h 50.8 c 3.5,0 6.5,2.8 6.5,6.3 z"
     id="path82" /><path
     d="m 14.9,35.4 c 0.1,0 32.4,0 32.4,0 1.4,0 2.6,-1.2 2.6,-2.6 0,-1.4 -1.2,-2.6 -2.6,-2.6 H 15.2 c -1.4,-0.1 -2.7,1 -2.8,2.4 0,1.5 1.1,2.7 2.5,2.8 z"
     id="path84" /><path
     d="m 15.1,24.9 h 16.1 c 1.4,-0.1 2.5,-1.3 2.4,-2.8 -0.1,-1.3 -1.1,-2.4 -2.4,-2.4 h -16 c -1.4,0 -2.6,1.2 -2.5,2.7 0.1,1.3 1.1,2.4 2.4,2.5 z"
     id="path86" /><path
     d="M 47.2,40.6 H 15.1 c -1.4,-0.1 -2.7,1 -2.8,2.4 -0.1,1.4 1,2.7 2.4,2.8 0.1,0 32.4,0 32.4,0 1.5,0 2.6,-1.1 2.6,-2.6 0,-1.5 -1,-2.6 -2.5,-2.6 z"
     id="path88" /></g><g
   id="g152"
   transform="matrix(0.36239501,0,0,0.36392108,-3.4427526,51.334279)"><path
     d="m 62.1,32.3 c -1.7,0 -2.6,1.4 -2.6,3.1 v 22.8 h -45 V 13.3 h 27.8 c 4.1,0.1 4.1,-5.2 0,-5.1 H 12.6 c -1.7,0 -3.1,1.4 -3.1,3.1 v 0 49.1 c 0,1.7 1.3,3.1 3,3.1 v 0 h 49 c 1.7,0 3.1,-1.4 3.1,-3.1 V 35.5 c 0.1,-1.8 -0.8,-3.2 -2.5,-3.2 z"
     id="path148" /><path
     d="m 28.4,30.9 c -1.4,-1 -3.3,-0.7 -4.4,0.6 -1,1.4 -0.7,3.4 0.6,4.5 l 9.5,7 c 1.1,0.8 2.2,1.1 3.4,0 4.4,-4.7 22.1,-24.8 26.4,-29.4 0.9,-1 1.1,-2.4 0.6,-3.6 -0.5,-1.2 -1.7,-1.9 -3,-1.9 -0.8,0 -1.6,0.4 -2.1,1 C 55,13.8 39.7,31.5 35.6,36 Z"
     id="path150" /></g><g
   id="g245"
   transform="matrix(2.266724,0,0,1.1188065,-42.892514,-1.4130098)"><path
     d="m 32.563129,8.9510018 c 0.02425,0 7.857625,0 7.857625,0 0.339527,0 0.630551,-0.315334 0.630551,-0.683224 0,-0.367891 -0.291024,-0.683225 -0.630551,-0.683225 h -7.784869 c -0.339527,-0.02628 -0.654802,0.262779 -0.679054,0.630669 0,0.394168 0.266771,0.709503 0.606298,0.73578 z"
     id="path84-4"
     style="stroke-width:0.252446" /><path
     d="m 32.846598,6.1918252 h 5.476962 c 0.476258,-0.026278 0.85046,-0.3416124 0.816442,-0.7357806 -0.03402,-0.3416124 -0.374203,-0.630669 -0.816442,-0.630669 h -5.442944 c -0.476257,0 -0.884478,0.3153345 -0.850459,0.7095026 0.03401,0.3416124 0.374202,0.6306691 0.816441,0.656947 z"
     id="path86-8"
     style="stroke-width:0.298987" /><path
     d="M 38.099572,10.317452 H 32.42697 c -0.247403,-0.02628 -0.477135,0.262779 -0.494807,0.630669 -0.01767,0.36789 0.176718,0.709503 0.424121,0.735781 0.01767,0 5.725617,0 5.725617,0 0.265074,0 0.459463,-0.289057 0.459463,-0.683225 0,-0.394168 -0.176717,-0.683225 -0.441792,-0.683225 z"
     id="path88-3"
     style="stroke-width:0.215493" /></g><path
   d="m 30.792368,36.087707 c 0.04991,0 16.168452,0 16.168452,0 0.698636,0 1.29747,-0.352798 1.29747,-0.764396 0,-0.411599 -0.598834,-0.764396 -1.29747,-0.764396 H 30.942077 c -0.698638,-0.0294 -1.347371,0.293998 -1.397275,0.705596 0,0.440998 0.54893,0.793797 1.247566,0.823196 z"
   id="path84-4-2"
   style="stroke-width:0.383031" /><path
   d="m 31.691092,33.000721 h 13.280936 c 1.154866,-0.0294 2.062258,-0.382197 1.979769,-0.823195 -0.08249,-0.382199 -0.907394,-0.705597 -1.979769,-0.705597 H 31.773582 c -1.154864,0 -2.144746,0.352798 -2.062255,0.793796 0.08247,0.382199 0.907391,0.705596 1.979765,0.734996 z"
   id="path86-8-4"
   style="stroke-width:0.492464" /><path
   d="M 44.728551,37.6165 H 30.711764 c -0.611323,-0.0294 -1.178981,0.293998 -1.222649,0.705596 -0.04367,0.411597 0.436664,0.793796 1.047986,0.823196 0.04367,0 14.147786,0 14.147786,0 0.654987,0 1.135316,-0.323399 1.135316,-0.764397 0,-0.440996 -0.436661,-0.764395 -1.091652,-0.764395 z"
   id="path88-3-7"
   style="stroke-width:0.358297" /><path
   d="m 30.814107,63.947358 c 0.05078,0 16.450187,0 16.450187,0 0.71081,0 1.320077,-0.352798 1.320077,-0.764396 0,-0.411599 -0.609267,-0.764396 -1.320077,-0.764396 H 30.966425 c -0.710812,-0.0294 -1.37085,0.293998 -1.421623,0.705596 0,0.440998 0.558494,0.793797 1.269305,0.823196 z"
   id="path84-4-4"
   style="stroke-width:0.386354" /><path
   d="m 31.276906,60.860373 h 10.509177 c 0.913842,-0.0294 1.63186,-0.382198 1.566586,-0.823196 C 43.287395,59.654978 42.63465,59.33158 41.786083,59.33158 H 31.34218 c -0.91384,0 -1.697133,0.352798 -1.631857,0.793796 0.06525,0.382199 0.718017,0.705596 1.566583,0.734997 z"
   id="path86-8-9"
   style="stroke-width:0.43807" /><path
   d="M 45.459529,65.476151 H 30.770532 c -0.64064,-0.0294 -1.235522,0.293999 -1.281285,0.705597 -0.04576,0.411597 0.457606,0.793796 1.098246,0.823196 0.04576,0 14.826278,0 14.826278,0 0.686398,0 1.189761,-0.323399 1.189761,-0.764396 0,-0.440998 -0.457601,-0.764397 -1.144003,-0.764397 z"
   id="path88-3-8"
   style="stroke-width:0.366787" /><path
   d="m 55.840312,63.948669 c 0.04627,0 14.991687,0 14.991687,0 0.647788,0 1.203038,-0.352798 1.203038,-0.764396 0,-0.411598 -0.55525,-0.764397 -1.203038,-0.764397 H 55.979125 c -0.647789,-0.0294 -1.249308,0.294 -1.295579,0.705598 0,0.440997 0.508977,0.793797 1.156766,0.823195 z"
   id="path84-4-7"
   style="stroke-width:0.368829" /><path
   d="m 56.700404,60.861684 h 12.41476 c 1.079546,-0.0294 1.927758,-0.382198 1.850649,-0.823195 -0.07711,-0.382199 -0.848215,-0.705597 -1.850649,-0.705597 H 56.777512 c -1.079543,0 -2.004866,0.352798 -1.927755,0.793796 0.07709,0.382198 0.848212,0.705596 1.850647,0.734996 z"
   id="path86-8-3"
   style="stroke-width:0.476134" /><path
   d="M 71.477347,65.477462 H 55.979949 c -0.675897,-0.0294 -1.303518,0.293998 -1.351799,0.705596 -0.04828,0.411598 0.48279,0.793797 1.158688,0.823197 0.04828,0 15.642232,0 15.642232,0 0.724176,0 1.255241,-0.323399 1.255241,-0.764397 0,-0.440998 -0.482786,-0.764396 -1.206964,-0.764396 z"
   id="path88-3-5"
   style="stroke-width:0.376745" /><path
   d="m 55.834907,36.087814 c 0.04606,0 14.921641,0 14.921641,0 0.644763,0 1.197417,-0.352797 1.197417,-0.764395 0,-0.411598 -0.552654,-0.764396 -1.197417,-0.764396 H 55.973071 c -0.644763,-0.0294 -1.243471,0.293999 -1.289525,0.705597 0,0.440997 0.506599,0.793795 1.151361,0.823194 z"
   id="path84-4-6"
   style="stroke-width:0.367966" /><path
   d="m 56.156785,33.227331 h 8.776826 c 0.763204,-0.03375 1.362861,-0.438823 1.308348,-0.945157 -0.05452,-0.438825 -0.599661,-0.810136 -1.308348,-0.810136 h -8.722313 c -0.763201,0 -1.417375,0.405067 -1.36286,0.911402 0.0545,0.438824 0.599659,0.810136 1.308347,0.843891 z"
   id="path86-8-8"
   style="stroke-width:0.428972" /><path
   d="M 71.022288,37.616608 H 55.943364 c -0.657646,-0.0294 -1.268319,0.293998 -1.315296,0.705596 -0.04697,0.411598 0.469753,0.793797 1.127399,0.823197 0.04698,0 15.219846,0 15.219846,0 0.704621,0 1.221346,-0.323399 1.221346,-0.764397 0,-0.440998 -0.469749,-0.764396 -1.174371,-0.764396 z"
   id="path88-3-4"
   style="stroke-width:0.371624" /><path
   d="m 55.951784,8.6014282 c 0.05072,0 16.43637,0 16.43637,0 0.710214,0 1.31897,-0.352797 1.31897,-0.7643949 0,-0.4115989 -0.608756,-0.764397 -1.31897,-0.764397 H 56.103973 c -0.710213,-0.0294 -1.369697,0.2939993 -1.420427,0.7055971 0,0.4409978 0.558024,0.7937959 1.268238,0.8231948 z"
   id="path84-4-69"
   style="stroke-width:0.386192" /><path
   d="M 57.114088,5.5144441 H 72.297256 C 73.617534,5.4850441 74.65489,5.132246 74.560587,4.6912481 74.466274,4.3090499 73.523226,3.9856516 72.297256,3.9856516 H 57.208391 c -1.320274,0 -2.451938,0.3527982 -2.357631,0.793796 0.09428,0.3821982 1.037357,0.7055967 2.263328,0.7349965 z"
   id="path86-8-43"
   style="stroke-width:0.526552" /><path
   d="M 68.607446,10.130222 H 55.749222 c -0.560794,-0.0294 -1.081533,0.293998 -1.121591,0.705596 -0.04005,0.411598 0.400572,0.793797 0.961365,0.823197 0.04005,0 12.978393,0 12.978393,0 0.600851,0 1.041476,-0.323399 1.041476,-0.764397 0,-0.440998 -0.400568,-0.764396 -1.001419,-0.764396 z"
   id="path88-3-1"
   style="stroke-width:0.34317" /></svg>
