<?xml version="1.0" encoding="UTF-8" standalone="no"?>
<svg
   xmlns:dc="http://purl.org/dc/elements/1.1/"
   xmlns:cc="http://creativecommons.org/ns#"
   xmlns:rdf="http://www.w3.org/1999/02/22-rdf-syntax-ns#"
   xmlns:svg="http://www.w3.org/2000/svg"
   xmlns="http://www.w3.org/2000/svg"
   xmlns:sodipodi="http://sodipodi.sourceforge.net/DTD/sodipodi-0.dtd"
   xmlns:inkscape="http://www.inkscape.org/namespaces/inkscape"
   width="24px"
   height="24px"
   version="1.1"
   id="Layer_1"
   x="0px"
   y="0px"
   viewBox="0 0 74.4 74.4"
   style="enable-background:new 0 0 74.4 74.4;"
   xml:space="preserve"
   preserveAspectRatio="xMinYMid meet"
   sodipodi:docname="monologo.svg"
   inkscape:version="1.0.2-2 (e86c870879, 2021-01-15)"
   inkscape:export-filename="C:\Moodle\server\moodle\mod\cado\pix\monologo.png"
   inkscape:export-xdpi="96"
   inkscape:export-ydpi="96"><metadata
   id="metadata27"><rdf:RDF><cc:Work
       rdf:about=""><dc:format>image/svg+xml</dc:format><dc:type
         rdf:resource="http://purl.org/dc/dcmitype/StillImage" /><dc:title></dc:title></cc:Work></rdf:RDF></metadata><defs
   id="defs25" /><sodipodi:namedview
   pagecolor="#ffffff"
   bordercolor="#666666"
   borderopacity="1"
   objecttolerance="10"
   gridtolerance="10"
   guidetolerance="10"
   inkscape:pageopacity="0"
   inkscape:pageshadow="2"
   inkscape:window-width="2560"
   inkscape:window-height="1494"
   id="namedview23"
   showgrid="false"
   inkscape:zoom="10.827573"
   inkscape:cx="-25.131071"
   inkscape:cy="27.460965"
   inkscape:window-x="-11"
   inkscape:window-y="-11"
   inkscape:window-maximized="1"
   inkscape:current-layer="Layer_1" />

<path
   id="Path_963-6_1_"
   d="m 13.037991,45.654589 c -0.343898,0 -0.653407,-0.193767 -0.653407,-0.435975 v -0.02422 -2.058772 H 5.3690473 c -0.619018,3e-6 -1.1004765,-0.339089 -1.1004765,-0.775064 v 0 -13.951202 c 0,-0.435975 0.4814585,-0.775067 1.1004765,-0.775067 H 17.061608 c 0.275119,0 0.584628,0.07266 0.756577,0.217987 l 4.161176,2.930722 c 0.20634,0.145322 0.30951,0.339089 0.30951,0.532856 v 11.02048 c 0,0.435976 -0.481458,0.775068 -1.100477,0.775068 v 0 h -7.049926 v 2.05877 c 0,0.26643 -0.30951,0.484417 -0.653408,0.484417 z m 7.462606,-3.826893 v -8.98593 h -4.470685 c -0.619019,0 -1.100477,-0.339091 -1.100477,-0.750845 v 0 -3.148709 H 6.0912344 V 41.851918 H 12.384584 V 39.962692 H 10.6307 c -0.378288,0 -0.6877983,-0.217987 -0.6877983,-0.484416 0,-0.09688 0.068778,-0.193767 0.1375593,-0.290651 l 2.716801,-2.543188 c 0.240729,-0.193766 0.619018,-0.217986 0.928527,-0.07266 0.03439,0.02422 2.751191,2.61585 2.751191,2.61585 0.240729,0.217989 0.171949,0.508639 -0.137559,0.678184 -0.103173,0.04844 -0.240729,0.09688 -0.378289,0.09688 h -1.788274 v 1.889226 z M 16.958438,31.412737 h 3.129479 l -3.129479,-2.204096 c 0,0 0,2.204096 0,2.204096 z"
   style="stroke-width:0.28861" /><g
   id="g90"
   transform="matrix(0.24253432,0,0,0.25533546,3.6434697,3.0173266)"><path
     d="m 62,3.8 v 0 H 12.4 C 5.5,3.8 0,9.4 0,16.2 v 0 33.6 c 0,6.9 5.6,12.3 12.4,12.3 h 9 l 13.7,11.6 c 1.2,0.9 2.8,0.9 4,0 L 52.9,62.1 h 9 c 6.9,0 12.4,-5.6 12.4,-12.4 V 16.2 C 74.3,9.3 68.9,3.8 62,3.8 Z m 7.1,11.7 v 34.6 c 0,3.5 -2.8,6.3 -6.3,6.3 v 0 h -9.2 c -1.5,0 -2.9,0.5 -4.1,1.5 L 37.3,68.1 25,57.9 c -1.1,-1 -2.6,-1.5 -4.1,-1.5 h -9.1 c -3.5,0 -6.3,-2.8 -6.3,-6.3 v 0 -34.6 C 5.5,12 8.3,9.2 11.8,9.2 v 0 h 50.8 c 3.5,0 6.5,2.8 6.5,6.3 z"
     id="path82" /><path
     d="m 14.9,35.4 c 0.1,0 32.4,0 32.4,0 1.4,0 2.6,-1.2 2.6,-2.6 0,-1.4 -1.2,-2.6 -2.6,-2.6 H 15.2 c -1.4,-0.1 -2.7,1 -2.8,2.4 0,1.5 1.1,2.7 2.5,2.8 z"
     id="path84" /><path
     d="m 15.1,24.9 h 16.1 c 1.4,-0.1 2.5,-1.3 2.4,-2.8 -0.1,-1.3 -1.1,-2.4 -2.4,-2.4 h -16 c -1.4,0 -2.6,1.2 -2.5,2.7 0.1,1.3 1.1,2.4 2.4,2.5 z"
     id="path86" /><path
     d="M 47.2,40.6 H 15.1 c -1.4,-0.1 -2.7,1 -2.8,2.4 -0.1,1.4 1,2.7 2.4,2.8 0.1,0 32.4,0 32.4,0 1.5,0 2.6,-1.1 2.6,-2.6 0,-1.5 -1,-2.6 -2.5,-2.6 z"
     id="path88" /></g><g
   id="g152"
   transform="matrix(0.32605389,0,0,0.32527617,1.154273,49.83506)"><path
     d="m 62.1,32.3 c -1.7,0 -2.6,1.4 -2.6,3.1 v 22.8 h -45 V 13.3 h 27.8 c 4.1,0.1 4.1,-5.2 0,-5.1 H 12.6 c -1.7,0 -3.1,1.4 -3.1,3.1 v 0 49.1 c 0,1.7 1.3,3.1 3,3.1 v 0 h 49 c 1.7,0 3.1,-1.4 3.1,-3.1 V 35.5 c 0.1,-1.8 -0.8,-3.2 -2.5,-3.2 z"
     id="path148" /><path
     d="m 28.4,30.9 c -1.4,-1 -3.3,-0.7 -4.4,0.6 -1,1.4 -0.7,3.4 0.6,4.5 l 9.5,7 c 1.1,0.8 2.2,1.1 3.4,0 4.4,-4.7 22.1,-24.8 26.4,-29.4 0.9,-1 1.1,-2.4 0.6,-3.6 -0.5,-1.2 -1.7,-1.9 -3,-1.9 -0.8,0 -1.6,0.4 -2.1,1 C 55,13.8 39.7,31.5 35.6,36 Z"
     id="path150" /></g><g
   id="g245"
   transform="matrix(2.039416,0,0,1,-35.038288,2.6890244)"><path
     d="m 32.563129,8.9510018 c 0.02425,0 7.857625,0 7.857625,0 0.339527,0 0.630551,-0.315334 0.630551,-0.683224 0,-0.367891 -0.291024,-0.683225 -0.630551,-0.683225 h -7.784869 c -0.339527,-0.02628 -0.654802,0.262779 -0.679054,0.630669 0,0.394168 0.266771,0.709503 0.606298,0.73578 z"
     id="path84-4"
     style="stroke-width:0.252446" /><path
     d="m 32.846598,6.1918252 h 5.476962 c 0.476258,-0.026278 0.85046,-0.3416124 0.816442,-0.7357806 -0.03402,-0.3416124 -0.374203,-0.630669 -0.816442,-0.630669 h -5.442944 c -0.476257,0 -0.884478,0.3153345 -0.850459,0.7095026 0.03401,0.3416124 0.374202,0.6306691 0.816441,0.656947 z"
     id="path86-8"
     style="stroke-width:0.298987" /><path
     d="M 38.099572,10.317452 H 32.42697 c -0.247403,-0.02628 -0.477135,0.262779 -0.494807,0.630669 -0.01767,0.36789 0.176718,0.709503 0.424121,0.735781 0.01767,0 5.725617,0 5.725617,0 0.265074,0 0.459463,-0.289057 0.459463,-0.683225 0,-0.394168 -0.176717,-0.683225 -0.441792,-0.683225 z"
     id="path88-3"
     style="stroke-width:0.215493" /></g><path
   d="m 31.257443,36.207526 c 0.0449,0 14.547073,0 14.547073,0 0.628577,0 1.167359,-0.315334 1.167359,-0.683224 0,-0.367891 -0.538782,-0.683225 -1.167359,-0.683225 H 31.392139 c -0.628578,-0.02628 -1.212256,0.262779 -1.257155,0.630669 0,0.394168 0.493882,0.709503 1.122459,0.73578 z"
   id="path84-4-2"
   style="stroke-width:0.343487" /><path
   d="m 32.066043,33.448349 h 11.949118 c 1.039056,-0.02628 1.855454,-0.341612 1.781236,-0.73578 -0.07422,-0.341613 -0.8164,-0.630669 -1.781236,-0.630669 H 32.14026 c -1.039053,0 -1.92967,0.315334 -1.855451,0.709502 0.0742,0.341613 0.816398,0.630669 1.781234,0.656947 z"
   id="path86-8-4"
   style="stroke-width:0.441622" /><path
   d="M 43.7961,37.573976 H 31.184922 c -0.550019,-0.02628 -1.060752,0.262779 -1.100041,0.630669 -0.03929,0.36789 0.392875,0.709503 0.942894,0.735781 0.03929,0 12.729039,0 12.729039,0 0.589305,0 1.021466,-0.289057 1.021466,-0.683225 0,-0.394168 -0.392872,-0.683225 -0.98218,-0.683225 z"
   id="path88-3-7"
   style="stroke-width:0.321306" /><path
   d="m 31.277002,61.108751 c 0.04568,0 14.800555,0 14.800555,0 0.63953,0 1.1877,-0.315334 1.1877,-0.683224 0,-0.367891 -0.54817,-0.683225 -1.1877,-0.683225 H 31.414045 c -0.639531,-0.02628 -1.23338,0.262779 -1.279061,0.630669 0,0.394168 0.502488,0.709503 1.142018,0.73578 z"
   id="path84-4-4"
   style="stroke-width:0.346467" /><path
   d="m 31.693392,58.349574 h 9.455312 c 0.822202,-0.02628 1.468216,-0.341612 1.409488,-0.73578 -0.05873,-0.341613 -0.646016,-0.630669 -1.409488,-0.630669 H 31.75212 c -0.8222,0 -1.526944,0.315334 -1.468214,0.709502 0.05871,0.341613 0.646014,0.630669 1.409486,0.656947 z"
   id="path86-8-9"
   style="stroke-width:0.392844" /><path
   d="M 44.453775,62.475201 H 31.237797 C 30.6614,62.448921 30.126173,62.73798 30.085,63.10587 c -0.04117,0.36789 0.411717,0.709503 0.988113,0.735781 0.04117,0 13.339492,0 13.339492,0 0.617567,0 1.070452,-0.289057 1.070452,-0.683225 0,-0.394168 -0.411713,-0.683225 -1.029282,-0.683225 z"
   id="path88-3-8"
   style="stroke-width:0.32892" /><path
   d="m 54.909349,61.109923 c 0.04163,0 13.488314,0 13.488314,0 0.582828,0 1.082397,-0.315334 1.082397,-0.683224 0,-0.367891 -0.499569,-0.683225 -1.082397,-0.683225 H 55.034241 c -0.582828,-0.02628 -1.124026,0.262779 -1.165657,0.630669 0,0.394168 0.457936,0.709503 1.040765,0.73578 z"
   id="path84-4-7"
   style="stroke-width:0.330751" /><path
   d="m 55.68319,58.350746 h 11.169803 c 0.971289,-0.02628 1.734442,-0.341612 1.665065,-0.73578 -0.06938,-0.341613 -0.763155,-0.630669 -1.665065,-0.630669 H 55.752566 c -0.971286,0 -1.803818,0.315334 -1.734439,0.709502 0.06936,0.341613 0.763153,0.630669 1.665063,0.656947 z"
   id="path86-8-3"
   style="stroke-width:0.426978" /><path
   d="M 68.978296,62.476373 H 55.034983 c -0.608118,-0.02628 -1.172801,0.262779 -1.21624,0.630669 -0.04344,0.36789 0.434375,0.709503 1.042494,0.735781 0.04344,0 14.073623,0 14.073623,0 0.651555,0 1.129365,-0.289057 1.129365,-0.683225 0,-0.394168 -0.434372,-0.683225 -1.085929,-0.683225 z"
   id="path88-3-5"
   style="stroke-width:0.33785" /><path
   d="m 54.904486,36.207623 c 0.04144,0 13.425292,0 13.425292,0 0.580106,0 1.07734,-0.315334 1.07734,-0.683224 0,-0.367891 -0.497234,-0.683225 -1.07734,-0.683225 H 55.028795 c -0.580106,-0.02628 -1.118775,0.262779 -1.160211,0.630669 0,0.394168 0.455797,0.709503 1.035902,0.73578 z"
   id="path84-4-6"
   style="stroke-width:0.329977" /><path
   d="m 55.194086,33.650895 h 7.896682 c 0.686669,-0.03017 1.226193,-0.392224 1.177146,-0.844791 -0.04905,-0.392225 -0.539526,-0.724107 -1.177146,-0.724107 h -7.847636 c -0.686667,0 -1.27524,0.362053 -1.226191,0.81462 0.04903,0.392225 0.539524,0.724107 1.177145,0.754278 z"
   id="path86-8-8"
   style="stroke-width:0.384685" /><path
   d="M 68.56887,37.574073 H 55.002067 c -0.591697,-0.02628 -1.141132,0.262779 -1.183398,0.630669 -0.04226,0.36789 0.422646,0.709503 1.014343,0.735781 0.04227,0 13.693594,0 13.693594,0 0.633961,0 1.098869,-0.289057 1.098869,-0.683225 0,-0.394168 -0.422643,-0.683225 -1.056605,-0.683225 z"
   id="path88-3-4"
   style="stroke-width:0.333258" /><path
   d="m 55.009643,11.640026 c 0.04564,0 14.788123,0 14.788123,0 0.638994,0 1.186704,-0.315334 1.186704,-0.683224 0,-0.367891 -0.54771,-0.683225 -1.186704,-0.683225 H 55.14657 c -0.638993,-0.02628 -1.232343,0.262779 -1.277986,0.630669 0,0.394168 0.502065,0.709503 1.141059,0.73578 z"
   id="path84-4-69"
   style="stroke-width:0.346321" /><path
   d="M 56.05539,8.8808496 H 69.715984 C 70.903863,8.8545716 71.837194,8.5392372 71.752347,8.145069 71.667494,7.8034566 70.819013,7.5144 69.715984,7.5144 H 56.140237 c -1.187877,0 -2.206058,0.3153345 -2.121207,0.7095026 0.08483,0.3416124 0.93333,0.6306691 2.03636,0.656947 z"
   id="path86-8-43"
   style="stroke-width:0.472191" /><path
   d="M 66.396189,13.006476 H 54.827393 c -0.504557,-0.02628 -0.973076,0.262779 -1.009117,0.630669 -0.03604,0.36789 0.360402,0.709503 0.864959,0.735781 0.03604,0 11.676915,0 11.676915,0 0.540596,0 0.937036,-0.289057 0.937036,-0.683225 0,-0.394168 -0.360399,-0.683225 -0.900997,-0.683225 z"
   id="path88-3-1"
   style="stroke-width:0.307741" /></svg>
